<svg width="66" height="5" viewBox="0 0 66 5" fill="none" xmlns="http://www.w3.org/2000/svg">
<path d="M6.5 0H2.5C1.11929 0 0 1.11929 0 2.5C0 3.88071 1.11929 5 2.5 5H6.5C7.88071 5 9 3.88071 9 2.5C9 1.11929 7.88071 0 6.5 0Z" fill="#EAEAFF"/>
<path d="M44.5 0H21.5C20.1193 0 19 1.11929 19 2.5C19 3.88071 20.1193 5 21.5 5H44.5C45.8807 5 47 3.88071 47 2.5C47 1.11929 45.8807 0 44.5 0Z" fill="#3D5CFF"/>
<path d="M63.5 0H59.5C58.1193 0 57 1.11929 57 2.5C57 3.88071 58.1193 5 59.5 5H63.5C64.8807 5 66 3.88071 66 2.5C66 1.11929 64.8807 0 63.5 0Z" fill="#EAEAFF"/>
</svg>
